<svg width="24" height="24" viewBox="0 0 24 24" fill="none" xmlns="http://www.w3.org/2000/svg">
<g clip-path="url(#clip0_602_3879)">
<path d="M12 7.92398C10.5784 7.92398 9.42181 9.08057 9.42181 10.5022C9.42181 11.6801 10.216 12.6752 11.2969 12.9822V21.0026C11.2969 21.3909 11.6117 21.7057 12 21.7057C12.3884 21.7057 12.7032 21.3909 12.7032 21.0026V12.9822C13.784 12.6753 14.5782 11.6801 14.5782 10.5022C14.5782 9.08057 13.4217 7.92398 12 7.92398Z" fill="black"/>
<path d="M8.74707 6.74297C8.47251 6.46837 8.02733 6.46837 7.75268 6.74297C5.57268 8.92287 5.57235 12.4517 7.75268 14.6319C8.02733 14.9065 8.47247 14.9065 8.74707 14.6319C9.02167 14.3573 9.02167 13.9121 8.74707 13.6375C7.1167 12.0072 7.11642 9.36797 8.74707 7.73736C9.02167 7.46276 9.02167 7.01753 8.74707 6.74297Z" fill="black"/>
<path d="M16.2473 6.74297C15.9728 6.46841 15.5276 6.46841 15.2529 6.74297C14.9783 7.01752 14.9783 7.46276 15.2529 7.73736C16.8796 9.36403 16.8796 12.0108 15.2529 13.6375C14.9783 13.912 14.9783 14.3573 15.2529 14.6319C15.5276 14.9065 15.9727 14.9065 16.2473 14.6319C18.4224 12.4569 18.4224 8.9179 16.2473 6.74297Z" fill="black"/>
<path d="M6.62563 5.61596C6.90024 5.3414 6.90024 4.89617 6.62563 4.62157C6.35108 4.34701 5.90584 4.34701 5.63124 4.62157C2.2865 7.96631 2.2865 13.4085 5.63124 16.7533C5.90575 17.0278 6.35098 17.028 6.62563 16.7533C6.90024 16.4787 6.90024 16.0335 6.62563 15.7589C3.82925 12.9625 3.82925 8.41239 6.62563 5.61596Z" fill="black"/>
<path d="M18.3687 4.62157C18.0942 4.34701 17.649 4.34701 17.3743 4.62157C17.0997 4.89612 17.0997 5.34136 17.3743 5.61596C20.1707 8.41239 20.1707 12.9625 17.3743 15.7589C17.0997 16.0335 17.0997 16.4787 17.3743 16.7533C17.649 17.0279 18.0941 17.0279 18.3687 16.7533C21.7135 13.4085 21.7135 7.96631 18.3687 4.62157Z" fill="black"/>
<path d="M4.50425 3.49456C4.77886 3.22001 4.77886 2.77477 4.50425 2.50017C4.2297 2.22561 3.78446 2.22561 3.50986 2.50017C-1.17504 7.18502 -1.16487 14.2 3.50986 18.8747C3.78437 19.1493 4.2296 19.1494 4.50425 18.8747C4.77886 18.6001 4.77886 18.1549 4.50425 17.8803C0.40372 13.7797 0.40372 7.59519 4.50425 3.49456Z" fill="black"/>
<path d="M20.4901 2.50017C20.2156 2.22561 19.7704 2.22561 19.4957 2.50017C19.2211 2.77472 19.2211 3.21996 19.4957 3.49456C23.5964 7.59519 23.5964 13.7797 19.4957 17.8803C19.2211 18.1549 19.2211 18.6001 19.4957 18.8747C19.7704 19.1493 20.2155 19.1493 20.4901 18.8747C25.175 14.1899 25.1649 7.17489 20.4901 2.50017Z" fill="black"/>
</g>
<defs>
<clipPath id="clip0_602_3879">
<rect width="24" height="24" fill="white"/>
</clipPath>
</defs>
</svg>
