<svg width="24" height="24" viewBox="0 0 24 24" fill="none" xmlns="http://www.w3.org/2000/svg">
<path d="M18.8971 15.5283C17.8097 14.5982 16.7061 14.0349 15.6321 14.9635L14.9908 15.5248C14.5215 15.9322 13.6491 17.8358 10.2759 13.9555C6.90348 10.0801 8.91037 9.47668 9.38031 9.07277L10.0252 8.51081C11.0936 7.58006 10.6904 6.40838 9.91979 5.20228L9.45477 4.47173C8.68067 3.26844 7.83773 2.47818 6.7665 3.40752L6.18768 3.91328C5.71423 4.25819 4.39082 5.37929 4.0698 7.50912C3.68345 10.0646 4.9022 12.991 7.69443 16.2019C10.4832 19.4142 13.2136 21.0277 15.8 20.9996C17.9495 20.9765 19.2476 19.823 19.6536 19.4037L20.2345 18.8972C21.303 17.9686 20.6392 17.0231 19.5511 16.0909L18.8971 15.5283Z" fill="black"/>
</svg>
