<svg width="12" height="12" viewBox="0 0 12 12" fill="none" xmlns="http://www.w3.org/2000/svg">
<path fill-rule="evenodd" clip-rule="evenodd" d="M10.3905 1.6095C10.4254 1.64433 10.4531 1.68571 10.472 1.73127C10.4909 1.77683 10.5007 1.82567 10.5007 1.875C10.5007 1.92432 10.4909 1.97317 10.472 2.01872C10.4531 2.06428 10.4254 2.10566 10.3905 2.1405L2.14049 10.3905C2.07007 10.4609 1.97457 10.5005 1.87499 10.5005C1.7754 10.5005 1.6799 10.4609 1.60949 10.3905C1.53907 10.3201 1.49951 10.2246 1.49951 10.125C1.49951 10.0254 1.53907 9.92991 1.60949 9.8595L9.85949 1.6095C9.89432 1.57458 9.9357 1.54687 9.98126 1.52796C10.0268 1.50906 10.0757 1.49933 10.125 1.49933C10.1743 1.49933 10.2232 1.50906 10.2687 1.52796C10.3143 1.54687 10.3557 1.57458 10.3905 1.6095Z" fill="black"/>
<path fill-rule="evenodd" clip-rule="evenodd" d="M1.60956 1.6095C1.57464 1.64433 1.54693 1.68571 1.52803 1.73127C1.50912 1.77683 1.49939 1.82567 1.49939 1.875C1.49939 1.92432 1.50912 1.97317 1.52803 2.01872C1.54693 2.06428 1.57464 2.10566 1.60956 2.1405L9.85956 10.3905C9.92997 10.4609 10.0255 10.5005 10.1251 10.5005C10.2246 10.5005 10.3201 10.4609 10.3906 10.3905C10.461 10.3201 10.5005 10.2246 10.5005 10.125C10.5005 10.0254 10.461 9.92991 10.3906 9.8595L2.14056 1.6095C2.10573 1.57458 2.06434 1.54687 2.01879 1.52796C1.97323 1.50906 1.92439 1.49933 1.87506 1.49933C1.82573 1.49933 1.77689 1.50906 1.73133 1.52796C1.68578 1.54687 1.64439 1.57458 1.60956 1.6095V1.6095Z" fill="black"/>
</svg>
