<svg width="14" height="6" viewBox="0 0 14 6" fill="none" xmlns="http://www.w3.org/2000/svg">
<path fill-rule="evenodd" clip-rule="evenodd" d="M0.0525806 1.11228C0.111994 0.966699 0.215889 0.856052 0.341485 0.804602C0.467082 0.753152 0.60413 0.765099 0.722581 0.837823L6.49958 4.39105L12.2756 0.836592C12.3343 0.799646 12.3985 0.777381 12.4643 0.771081C12.53 0.76478 12.5962 0.77457 12.6589 0.799884C12.7216 0.825199 12.7796 0.865538 12.8296 0.918576C12.8795 0.971614 12.9205 1.0363 12.9501 1.10891C12.9796 1.18152 12.9972 1.26061 13.0018 1.34163C13.0064 1.42264 12.998 1.50398 12.9769 1.58095C12.9559 1.65792 12.9226 1.729 12.8792 1.79009C12.8357 1.85118 12.7828 1.90108 12.7236 1.9369L6.72358 5.62921C6.65405 5.67209 6.57735 5.69442 6.49958 5.69442C6.42181 5.69442 6.34511 5.67209 6.27558 5.62921L0.275581 1.9369C0.157293 1.86378 0.0673911 1.73591 0.025588 1.58133C-0.016215 1.42674 -0.00650807 1.25807 0.0525806 1.11228Z" fill="black"/>
</svg>
