<svg width="36" height="36" viewBox="0 0 36 36" fill="none" xmlns="http://www.w3.org/2000/svg">
<g clip-path="url(#clip0_502_2)">
<path d="M31.42 9.08997L18.42 3.08997C18.2884 3.02905 18.1451 2.9975 18 2.9975C17.855 2.9975 17.7116 3.02905 17.58 3.08997L4.58 9.08997C4.40642 9.17031 4.25952 9.29873 4.15672 9.46002C4.05392 9.62132 3.99953 9.80871 4 9.99997V27C3.99953 27.1912 4.05392 27.3786 4.15672 27.5399C4.25952 27.7012 4.40642 27.8296 4.58 27.91L17.58 33.91C17.7116 33.9709 17.855 34.0024 18 34.0024C18.1451 34.0024 18.2884 33.9709 18.42 33.91L31.42 27.91C31.5936 27.8296 31.7405 27.7012 31.8433 27.5399C31.9461 27.3786 32.0005 27.1912 32 27V9.99997C32.0005 9.80871 31.9461 9.62132 31.8433 9.46002C31.7405 9.29873 31.5936 9.17031 31.42 9.08997ZM18 14.9L7.39 9.99997L18 5.09997L28.61 9.99997L18 14.9ZM30 26.36L19 31.44V16.64L30 11.56V26.36Z" fill="black"/>
</g>
<defs>
<clipPath id="clip0_502_2">
<rect width="36" height="36" fill="white"/>
</clipPath>
</defs>
</svg>
