<svg width="1440" height="183" viewBox="0 0 1440 183" fill="none" xmlns="http://www.w3.org/2000/svg">
<mask id="mask0_201_28" style="mask-type:alpha" maskUnits="userSpaceOnUse" x="-17" y="0" width="1547" height="183">
<path d="M7.67784 150.797C-19.4288 136.738 -17.7344 45.0112 -13.4989 0.905273L241.685 11.2425L479.926 29.8497L761.581 66.0303L1185.12 11.2425L1519.72 30.8834C1526.78 67.7532 1536.66 144.801 1519.72 158.033C1498.54 174.572 1191.48 190.078 1067.59 176.64C943.704 163.201 621.813 163.201 616.518 164.235C611.224 165.269 605.93 166.302 527.575 176.64C477.809 181.808 261.803 178.707 210.978 176.64C160.153 174.572 130.505 158.033 110.387 150.797C90.2686 143.561 41.5611 168.37 7.67784 150.797Z" fill="#C4C4C4" stroke="black" stroke-width="0.63974"/>
</mask>
<g mask="url(#mask0_201_28)">
<mask id="mask1_201_28" style="mask-type:alpha" maskUnits="userSpaceOnUse" x="-69" y="27" width="802" height="168">
<rect x="-68.061" y="27.5601" width="800.677" height="167.357" fill="#C4C4C4"/>
</mask>
<g mask="url(#mask1_201_28)">
<path fill-rule="evenodd" clip-rule="evenodd" d="M76.5267 43.6753C75.7372 46.1091 71.4081 47.5592 65.1969 47.4695C57.9871 47.3657 55.8608 46.7222 55.5394 44.5451C55.234 42.4741 53.5336 42.7112 53.1285 44.8821C52.9753 45.7042 52.2025 47.0795 51.4122 47.9375C50.6218 48.7956 49.2046 51.1201 48.2619 53.1037C47.3192 55.0874 45.6946 57.4939 44.6522 58.4525C43.609 59.4104 42.9359 60.6515 43.1552 61.2108C43.3753 61.774 42.825 62.4534 41.9214 62.7342C39.4243 63.5096 37.3483 66.9511 36.2605 72.119C35.719 74.6931 34.5609 77.7844 33.6868 78.9896C32.8135 80.194 32.3174 81.3929 32.5846 81.6543C33.1461 82.2034 33.0464 82.3103 35.3018 78.7494C36.2533 77.2478 37.0373 76.435 37.0445 76.9435C37.0724 78.8695 35.439 81.8922 32.8239 84.7542C30.2071 87.6169 30.0963 88.0015 29.6249 95.8191C29.3562 100.274 28.9239 104.126 28.6647 104.379C28.4055 104.633 18.4346 105.096 6.50662 105.408C-5.4214 105.721 -18.1422 106.2 -21.7606 106.474L-28.3403 106.971V149.414V191.856H370.43H769.201V151.219C769.201 113.975 769.084 110.376 767.805 108.121C766.194 105.281 765.158 104.385 763.974 104.806C763.512 104.97 762.665 104.067 762.091 102.797C761.441 101.362 760.628 100.648 759.94 100.907C759.331 101.135 758.833 100.981 758.833 100.566C758.833 100.151 758.485 99.8106 758.06 99.8106C757.635 99.8106 757.481 100.425 757.716 101.176C757.955 101.937 757.661 101.753 757.052 100.761C756.45 99.7825 755.708 99.2264 755.402 99.5259C755.095 99.8254 754.845 99.6609 754.845 99.1608C754.845 98.6601 754.476 98.2505 754.027 98.2505C753.557 98.2505 753.743 99.3301 754.462 100.786L755.716 103.321L753.696 100.981C752.586 99.6936 750.954 98.6008 750.071 98.5524C748.019 98.4393 748.051 98.8792 750.259 101.231L752.053 103.142L750.19 102.194C749.166 101.671 748.145 101.422 747.923 101.64C747.7 101.857 748.629 102.597 749.985 103.283C753.062 104.84 753.078 105.091 750.077 104.659L747.701 104.319L748.939 106.745C749.619 108.079 750.65 109.171 751.229 109.171C751.808 109.171 752.471 109.653 752.702 110.243C752.933 110.832 754.361 111.542 755.875 111.819C757.389 112.097 759.447 113.019 760.447 113.868C761.448 114.717 762.661 115.413 763.142 115.415C763.623 115.418 765.093 116.317 766.409 117.415C768.779 119.392 768.783 119.409 766.808 119.079C763.402 118.509 762.454 118.172 761.627 117.238C761.187 116.74 759.256 116.088 757.336 115.788C754.516 115.346 753.964 115.445 754.462 116.302C754.96 117.157 754.871 117.173 754.005 116.387C752.723 115.223 751.355 115.086 752.053 116.192C752.325 116.621 752.122 116.972 751.604 116.972C749.507 116.972 752.602 119.167 755.472 119.714C757.921 120.181 758.158 120.377 756.839 120.852C755.876 121.197 753.965 120.889 752.021 120.075C750.248 119.334 747.787 118.727 746.55 118.727H744.304L746.584 120.682L748.863 122.636L728.925 122.152C717.959 121.885 697.4 121.434 683.241 121.15C657.609 120.635 657.512 120.626 661.308 119.283C668.062 116.894 669.084 116.398 670.557 114.798C672.505 112.682 671.015 111.892 667.976 113.429C664.925 114.973 662.808 114.951 665.72 113.405C666.925 112.765 667.913 111.958 667.913 111.613C667.913 110.468 662.24 110.753 660.3 111.997C659.252 112.668 657.935 113.068 657.374 112.886C656.156 112.489 662.095 108.674 665.068 107.945C666.208 107.665 667.875 106.522 668.773 105.406C670.287 103.524 670.305 103.341 669.018 102.9C667.711 102.451 667.71 102.393 669.002 101.909C670.144 101.48 670.219 101.109 669.445 99.6952L668.515 97.9955L666.943 99.8785C665.758 101.299 665.49 101.404 665.854 100.309C666.22 99.2076 666.029 98.9721 665.066 99.334C664.366 99.5961 663.494 99.8106 663.128 99.8106C662.3 99.8106 656.754 105.129 655.206 107.407C654.578 108.331 653.795 108.925 653.465 108.726C652.508 108.147 652.877 103.51 654.064 101.215C655.476 98.4814 655.529 96.206 654.155 97.2747C653.607 97.7014 652.554 97.9541 651.815 97.8371C650.111 97.5664 647.642 100.177 648.216 101.642C648.455 102.252 648.136 103.471 647.507 104.35C646.777 105.369 646.654 106.125 647.168 106.436C647.611 106.704 647.974 107.274 647.974 107.703C647.974 108.132 647.555 108.23 647.041 107.919C646.399 107.531 646.28 107.794 646.661 108.763C647.128 109.954 647.025 110.019 645.999 109.186C644.991 108.368 644.784 108.429 644.784 109.552C644.784 110.716 644.59 110.673 643.389 109.241C642.621 108.326 641.124 107.418 640.061 107.223C637.737 106.797 634.28 107.545 634.797 108.361C634.999 108.683 634.293 108.783 633.226 108.583C632.077 108.368 630.762 108.734 630.001 109.478C628.824 110.629 628.823 110.777 629.991 111.215C630.989 111.589 631.064 111.933 630.335 112.791C629.208 114.119 629.681 114.685 632.153 114.965C635.739 115.373 639.311 116.344 638.858 116.788C638.606 117.034 638.997 117.88 639.726 118.668C640.456 119.456 640.905 120.238 640.726 120.403C640.426 120.68 572.562 121.228 569.815 120.975C568.826 120.884 568.612 119.217 568.579 111.313C568.55 104.184 568.178 100.772 567.113 97.8605C566.327 95.7154 565.552 93.4337 565.389 92.7902C565.226 92.1467 564.858 90.8307 564.57 89.865C564.191 88.5935 564.378 88.1099 565.25 88.1099C566.834 88.1099 567.759 85.6754 566.471 84.8969C565.89 84.5451 564.868 84.8173 564.052 85.5404C562.734 86.7058 562.637 86.6606 562.637 84.8766C562.637 83.8236 562.282 82.6137 561.848 82.1894C561.344 81.6964 561.324 80.5091 561.792 78.9132C562.243 77.3741 562.24 76.4092 561.784 76.4092C561.377 76.4092 561.042 75.9061 561.042 75.2914C561.042 73.75 558.254 73.0238 556.288 74.0535C554.389 75.0473 554.16 77.371 555.828 78.7252C556.841 79.5466 556.785 79.9499 555.404 81.7767C553.976 83.6652 553.808 85.1606 553.763 96.3316C553.735 103.179 553.958 109.718 554.258 110.863C554.701 112.557 554.421 113.19 552.76 114.254C550.777 115.525 550.753 115.644 551.903 118.337C552.555 119.863 552.972 121.224 552.83 121.363C552.688 121.502 547.521 121.852 541.346 122.139L530.12 122.664L528.744 118.063C524.727 104.627 523.558 98.6374 523.558 91.4953C523.558 86.8494 523.134 83.166 522.401 81.4507C521.367 79.031 521.385 78.5013 522.567 76.4864C523.678 74.5933 523.721 74.0301 522.829 72.9801C521.716 71.6681 519.028 71.3459 517.44 72.3335C515.95 73.2609 515.282 77.0652 516.381 78.3609C517.159 79.2775 517.096 80.1527 516.071 82.6566C515.364 84.386 514.785 86.4258 514.785 87.1887C514.785 88.3158 514.259 88.5171 511.994 88.2581C508.977 87.9133 507.968 89.5007 510.752 90.2122C511.699 90.4547 512.397 91.4118 512.546 92.6747C512.715 94.0921 513.325 94.8144 514.492 94.9774C516.054 95.1951 516.133 95.479 515.47 98.4876C515.073 100.288 513.163 104.92 511.225 108.781C509.288 112.642 507.244 117.481 506.684 119.534C505.509 123.844 506.026 123.646 493.65 124.533C471.534 126.119 442.843 124.993 399.215 120.827C382.345 119.215 382.352 119.217 380.028 115.342C378.527 112.84 379.012 100.652 381.014 90.5873L381.994 85.6551L385.982 84.3329C388.175 83.6051 391.976 81.5248 394.429 79.7096C396.881 77.8944 399.261 76.4092 399.717 76.4092C400.174 76.4092 401.473 75.222 402.605 73.7711C405.64 69.8795 408.329 69.4996 411.509 72.5144C414.311 75.1705 423.039 78.2821 429.847 79.052C432.879 79.3945 432.114 79.0551 426.657 77.6354C417.442 75.2376 415.58 74.5121 412.228 72.0113C410.241 70.5292 409.604 69.5487 409.944 68.498C410.236 67.5986 409.968 66.8724 409.244 66.6009C408.6 66.3591 407.891 65.4831 407.669 64.6547C407.447 63.8263 406.583 63.1484 405.749 63.1484C404.914 63.1484 403.535 62.6328 402.683 62.0033C401.832 61.373 399.61 60.8465 397.746 60.8332C394.421 60.8091 394.356 60.859 394.356 63.448C394.356 65.5377 393.691 66.6742 391.164 68.9083C387.741 71.9325 386.777 72.1525 382.294 70.9348C380.323 70.3997 378.769 69.2148 377.417 67.2164C373.856 61.9526 372.025 57.8012 372.025 54.9891C372.025 53.4704 371.666 52.2278 371.228 52.2278C370.789 52.2278 370.43 53.2481 370.43 54.4946C370.43 56.6202 370.184 56.7949 366.489 57.2918C362.649 57.8082 360.994 57.596 356.853 56.0539C355.07 55.3901 354.876 54.94 355.152 52.1108C355.39 49.6677 355.207 48.9991 354.373 49.2675C353.773 49.4601 353.162 50.6326 353.014 51.8721C352.866 53.1123 352.059 54.5968 351.22 55.1716C350.381 55.7465 349.694 57.0055 349.694 57.9705C349.694 62.2927 341.044 69.4762 329.357 74.8585C316.618 80.726 307.185 81.6137 291.909 78.3835C280.062 75.878 274.484 73.917 269.32 70.4419C265.601 67.9387 260.369 62.5844 260.369 61.281C260.369 61.0212 261.602 60.8083 263.107 60.8083C265.23 60.8083 265.971 60.4214 266.403 59.0875C266.723 58.1015 266.608 57.252 266.132 57.0968C265.676 56.9478 264.496 56.1428 263.511 55.3066C262.526 54.4712 261.147 53.7769 260.447 53.7629C259.747 53.7496 258.476 53.2231 257.625 52.5928C255.368 50.9235 250.8 51.0702 250.795 52.8128C250.79 54.6225 246.113 59.5345 242.798 61.2116C239.37 62.9448 234.315 62.8536 231.713 61.0111C229.099 59.16 223.923 49.2901 224.347 46.9624C224.595 45.5966 224.291 45.2073 222.978 45.2073C221.731 45.2073 221.29 45.6933 221.29 47.0685C221.29 50.8533 211.844 52.8229 205.712 50.3174C203.391 49.3689 202.947 48.7948 202.947 46.7425C202.947 43.7252 201.071 43.96 200.701 47.0233C200.561 48.17 199.756 49.4703 198.911 49.9126C198.038 50.3697 196.986 52.2223 196.476 54.2036C193.996 63.8395 176.569 70.4941 150.708 71.6806L137.947 72.2656L149.172 72.3873C169.833 72.6112 183.883 68.9192 192.778 60.9269C196.48 57.6007 195.209 60.4276 190.956 64.9792C187.13 69.0736 186.929 69.5105 186.675 74.2415C186.375 79.8477 184.927 83.148 181.545 85.9312C180.085 87.1333 179.085 88.8268 178.844 90.5093C178.259 94.5796 176.345 100.919 175.528 101.487C175.128 101.765 175.021 102.556 175.29 103.242C175.735 104.377 172.116 104.491 135.627 104.491C103.835 104.491 95.2961 104.282 94.6205 103.485C93.5175 102.185 91.8945 92.2754 92.4863 90.4516C92.7495 89.6404 91.9823 87.4562 90.6639 85.2651C86.8828 78.9787 86.5119 77.1698 88.4484 74.4591C89.8704 72.4676 90.703 72.0885 94.0399 71.9154C97.3944 71.7414 107.216 68.1407 113.786 64.6758C114.535 64.2811 116.568 63.7358 118.305 63.4643C121.228 63.0064 121.554 63.1445 122.707 65.324C124.069 67.9005 128.491 70.9489 130.863 70.9481C131.734 70.9481 130.937 70.257 128.967 69.303C127.098 68.3981 124.831 66.6438 123.928 65.4035L122.286 63.1484H124.175C129.398 63.1484 127.348 57.4393 121.764 56.4346C120.137 56.1413 117.95 55.2505 116.904 54.4548C114.396 52.546 113.227 52.6279 110.145 54.9267C108.731 55.9821 105.499 57.7747 102.964 58.9097C99.0317 60.6702 97.7174 60.8964 94.024 60.4448C91.6433 60.1538 89.2467 59.4791 88.698 58.9447C88.1501 58.4112 86.7576 57.3706 85.6043 56.6327C83.0442 54.9954 78.3371 46.6122 78.6801 44.3002C79.0111 42.0661 77.2182 41.5458 76.5267 43.6753ZM261.448 64.7233C263.065 67.4005 269.433 72.2765 274.676 74.8522C279.967 77.4513 295.334 80.9974 303.666 81.5427C308.899 81.8844 312.672 81.6777 316.778 80.8219C323.417 79.4381 334.518 74.5722 340.294 70.5136C342.479 68.9777 344.414 67.8646 344.593 68.0401C344.772 68.2148 343.98 70.0822 342.834 72.1884C341.687 74.2953 340.42 78.2813 340.018 81.0458C339.617 83.8103 338.765 87.0998 338.124 88.3556C337.483 89.6115 337.158 90.954 337.4 91.3378C338.213 92.624 339.112 91.2925 339.649 88.007C340.486 82.886 341.067 82.8391 342.661 87.7605L344.145 92.3448L342.207 96.1756C340.397 99.7513 340.339 100.245 341.326 103.613C341.908 105.598 342.628 109.074 342.926 111.337L343.469 115.454L340.401 115.019C335.031 114.258 284.482 109.326 268.744 108.028C249.552 106.445 246.811 106.105 246.811 105.308C246.811 104.951 245.964 104.452 244.929 104.198C242.726 103.657 239.633 97.2178 239.633 93.1717C239.633 91.7801 239.153 90.2511 238.566 89.7745C237.979 89.2987 236.845 86.7971 236.047 84.2167C234.123 78.0021 234.851 76.527 241.362 73.4489C244.14 72.1353 248.925 69.1368 251.995 66.7842C255.066 64.4316 258.128 62.476 258.801 62.4378C259.475 62.3996 260.665 63.4277 261.448 64.7233ZM133.361 71.4653C133.91 71.6821 134.807 71.6821 135.355 71.4653C135.904 71.2492 135.455 71.0721 134.358 71.0721C133.261 71.0721 132.813 71.2492 133.361 71.4653ZM183.606 75.6689C181.294 77.9888 180.701 79.7478 182.452 79.0902C183.518 78.6901 186.574 74.1572 186.076 73.7142C185.924 73.5784 184.812 74.4583 183.606 75.6689ZM61.7818 78.6994C63.7557 79.1191 67.5927 79.2556 70.3083 79.0029C74.8463 78.5809 75.2212 78.662 74.938 80.0115C74.7681 80.8188 74.2569 83.2346 73.8007 85.3798C73.3445 87.5249 72.8764 92.702 72.7599 96.8847L72.5486 104.489L65.4393 104.49C55.4804 104.491 52.9522 103.291 50.1792 97.2466C48.1518 92.8284 48.096 92.3752 49.0403 88.0233C49.5858 85.5061 50.5229 83.049 51.1219 82.563C51.7208 82.0763 52.2113 80.6223 52.2113 79.3313C52.2113 77.0543 52.3006 76.9981 55.2021 77.4599C56.8474 77.722 59.8079 78.2798 61.7818 78.6994ZM84.6569 84.3805C86.3995 86.6465 88.2139 89.904 88.6884 91.6201C89.9988 96.3605 91.1584 103.248 90.7564 103.906C90.5603 104.228 87.729 104.491 84.4646 104.491C79.0621 104.491 78.5302 104.351 78.5302 102.931C78.5302 101.911 77.9982 101.371 76.9925 101.371C75.6008 101.371 75.4979 100.947 75.9046 96.8854C76.1527 94.4182 76.7014 91.7426 77.1249 90.9384C77.5484 90.1341 77.9886 88.7301 78.1035 87.8182C78.5357 84.3914 80.2233 79.4966 80.8438 79.8718C81.1987 80.0863 82.9142 82.1153 84.6569 84.3805ZM434.882 80.0622C435.457 80.2876 436.145 80.2595 436.41 80.0006C436.675 79.7416 436.204 79.5575 435.364 79.591C434.434 79.6285 434.245 79.8134 434.882 80.0622ZM210.775 81.6839L217.408 82.0708L216.864 85.2854C216.565 87.0529 216.002 89.0912 215.615 89.8135C215.227 90.5366 214.91 92.4563 214.91 94.0812C214.91 95.706 214.469 98.8878 213.931 101.153C212.973 105.183 212.892 105.269 210.143 105.208C205.885 105.113 201.269 102.269 199.086 98.3964C197.428 95.458 197.257 94.4127 197.724 90.1373C198.364 84.2978 200.736 79.8851 202.78 80.7314C203.53 81.0427 207.127 81.4709 210.775 81.6839ZM43.5077 87.7215C42.589 91.7371 42.6217 91.8775 45.7871 97.5578C47.5537 100.728 49.0036 103.584 49.01 103.906C49.0307 104.97 35.1671 104.517 33.6685 103.405C31.8174 102.031 31.8708 97.2411 33.7833 93.1225C35.2978 89.8619 40.5401 82.6917 42.128 81.7096C43.8076 80.6714 44.4656 83.5365 43.5077 87.7215ZM232.066 86.762C232.853 88.5756 234.698 92.5203 236.167 95.5274C237.635 98.5345 238.836 101.535 238.836 102.197C238.836 102.857 239.261 103.814 239.779 104.322C240.299 104.829 240.568 105.358 240.378 105.497C239.398 106.212 218.075 104.78 217.219 103.941C216.47 103.209 216.645 101.92 218.016 98.0906C218.983 95.3901 220.061 91.9516 220.411 90.4501C220.762 88.9485 221.611 86.432 222.298 84.8579C224.517 79.7736 229.45 80.7354 232.066 86.762ZM442.857 81.6223C443.432 81.8477 444.121 81.8196 444.385 81.5606C444.65 81.3017 444.18 81.1176 443.339 81.1511C442.41 81.1886 442.221 81.3734 442.857 81.6223ZM448.988 83.1317C451.181 83.7495 459.256 84.5958 466.933 85.0131C474.609 85.4297 486.704 86.5077 493.81 87.4079C500.917 88.3088 507.157 88.9071 507.677 88.7371C509.793 88.0475 483.872 84.939 469.879 84.205C461.63 83.7721 453.375 83.0778 451.535 82.6629C446.416 81.5068 444.482 81.8633 448.988 83.1317ZM192.628 90.6474C191.944 92.5655 192.018 93.3893 192.99 94.6795C194.808 97.0914 199.756 104.381 199.758 104.648C199.759 104.776 195.093 104.773 189.39 104.642C181.379 104.458 179.02 104.166 179.02 103.36C179.02 102.785 179.76 99.9744 180.663 97.1132C182.484 91.3463 186.487 86.3002 190.529 84.6754C192.913 83.7175 192.984 83.751 193.232 85.964C193.372 87.2144 193.1 89.3221 192.628 90.6474ZM358.933 90.5476C362.142 91.3385 362.478 91.6755 363.728 95.3581C364.888 98.7739 364.935 99.8621 364.066 103.27C362.874 107.941 361.12 110.028 356.773 111.945C354.38 113 353.667 113.715 353.951 114.774C354.262 115.939 353.846 116.192 351.613 116.192C349.73 116.192 348.897 115.833 348.897 115.022C348.897 114.378 348.38 113.851 347.747 113.851C346.131 113.851 345.794 113.08 345.034 107.64C344.448 103.449 344.509 102.985 345.52 103.974C346.155 104.596 346.769 106.283 346.883 107.723C347.043 109.757 347.486 110.399 348.868 110.6C350.513 110.84 350.596 110.664 349.972 108.26C349.599 106.831 349.295 102.558 349.295 98.7654C349.295 92.4158 349.448 91.7496 351.221 90.3455C352.281 89.5078 353.672 89.0187 354.315 89.2597C354.957 89.5007 357.035 90.0803 358.933 90.5476ZM375.255 97.2755C375.207 101.459 375.404 107.986 375.694 111.78L376.221 118.678L370.733 118.125C367.715 117.82 363.093 117.318 360.461 117.008L355.676 116.446L359.351 114.771C361.372 113.85 364.535 111.494 366.382 109.535C369.665 106.052 369.726 105.886 369.214 101.874C368.314 94.8308 370.472 90.0343 374.681 89.7191C375.045 89.6926 375.303 93.0921 375.255 97.2755ZM751.757 100.396C752.748 101.633 752.72 101.66 751.455 100.691C750.688 100.102 750.06 99.4869 750.06 99.3254C750.06 98.6834 750.714 99.0961 751.757 100.396ZM761.225 121.652C762.256 122.303 762.235 122.409 761.073 122.42C760.331 122.426 759.502 122.081 759.231 121.652C758.608 120.664 759.664 120.664 761.225 121.652Z" fill="black"/>
</g>
<path d="M970.414 135.429C898.081 137.66 782.772 127.631 732.599 122.239L729.479 196.785L1477.89 197.9L1499.84 188.418C1501.76 155.137 1500.05 88.0186 1477.89 85.7875C1450.19 82.9986 1060.83 132.64 970.414 135.429Z" fill="black"/>
<path d="M967.561 128.428C967.766 125.872 968.572 122.498 969.438 120.57C970.271 118.713 971.024 117.271 971.111 117.367C971.197 117.463 970.858 119.298 970.357 121.444C969.354 125.747 969.241 128.055 969.904 130.747C970.294 132.331 970.469 132.091 971.461 128.605C972.412 125.263 972.584 125.011 972.617 126.91C972.639 128.137 972.855 130.225 973.099 131.55C973.527 133.876 973.558 133.898 973.998 132.175C974.249 131.193 974.503 129.266 974.564 127.891L974.673 125.393L975.61 128.248C976.126 129.819 977.117 131.737 977.812 132.512C979.069 133.913 979.075 133.91 979.12 131.798C979.145 130.631 979.438 129.034 979.771 128.248C980.29 127.025 980.342 127.102 980.136 128.784C979.844 131.165 980.14 131.217 982.158 129.141L983.718 127.534L983.271 129.855C982.719 132.722 983.131 132.75 985.909 130.037C989.094 126.928 992.539 125.173 996.473 124.661L999.936 124.21L996.556 126.023C992.906 127.981 988.703 131.283 988.703 132.193C988.703 132.503 990.942 131.708 993.678 130.426C1001.1 126.948 1002.28 126.754 998.136 129.691C996.086 131.145 994.505 132.441 994.623 132.572C994.74 132.702 996.975 132.184 999.589 131.421C1005.72 129.631 1006.84 129.64 1004.75 131.461C1001.56 134.239 1008.33 132.231 1012.24 129.24C1015.98 126.376 1016.37 126.664 1013.39 130.077C1010.61 133.254 1010.33 133.254 1017.51 130.079C1022.58 127.84 1022.36 128.932 1017.21 131.617L1012.77 133.928L1016.95 134.319C1020.49 134.651 1025.29 136.488 1025.29 137.511C1025.29 137.678 998.933 137.793 966.719 137.768C934.506 137.743 908.726 137.461 909.432 137.141C910.138 136.82 912.258 136.536 914.144 136.508L917.572 136.458L913.536 133.424C911.317 131.756 909.397 130.017 909.271 129.56C909.144 129.103 911.106 129.664 913.636 130.809C919.158 133.309 919.318 133.327 917.663 131.282C915.122 128.143 915.33 127.576 918.034 130.267C921.048 133.267 922.021 133.337 920.308 130.43C919.703 129.402 919.353 128.398 919.532 128.199C919.945 127.74 923.015 129.199 925.356 130.968C927.687 132.731 928.035 132.238 926.791 128.93C925.404 125.235 926.019 125.004 927.835 128.537C928.657 130.139 929.51 131.452 929.729 131.455C929.949 131.459 930.321 130.126 930.555 128.495C931.184 124.118 931.54 123.948 933.075 127.291C934.654 130.731 936.07 131.672 936.07 129.282C936.07 127.743 936.106 127.751 937.4 129.58C939.14 132.04 939.65 131.956 940.913 128.995C941.492 127.639 942.408 126.12 942.949 125.62C943.818 124.819 943.881 125.065 943.48 127.703C942.737 132.593 943.738 132.691 946.133 127.963C947.347 125.568 948.447 123.608 948.579 123.608C948.71 123.608 948.549 124.65 948.22 125.923C947.892 127.197 947.628 129.205 947.633 130.385L947.643 132.532L949.865 129.676L952.087 126.82L951.701 129.141C951.451 130.638 951.57 131.461 952.036 131.461C952.434 131.461 952.758 131.127 952.758 130.719C952.758 130.312 953.391 130.633 954.164 131.433C956.023 133.36 956.721 133.272 956.246 131.17L955.859 129.452L958.884 131.155C962.043 132.934 963.236 132.893 962.593 131.028C962.29 130.152 962.723 130.232 964.706 131.417L967.201 132.908L967.561 128.428Z" fill="black"/>
<path d="M1229.03 40.1019C1231.54 38.7647 1232.5 37.7787 1232.31 36.7244C1232.09 35.5596 1232.25 35.4466 1233.05 36.2074C1233.61 36.7423 1235.03 36.9886 1236.22 36.7545C1237.69 36.4667 1239.02 36.8732 1240.36 38.0161C1241.61 39.0866 1242.66 39.4337 1243.24 38.9663C1244.6 37.8624 1244.88 48.4412 1243.7 56.6042C1243.01 61.3668 1242.98 63.6746 1243.59 64.2712C1244.19 64.8687 1244.1 65.4775 1243.27 66.2929C1241.64 67.9007 1241.72 70.0939 1243.39 69.4631C1244.11 69.1916 1245.38 68.9697 1246.22 68.9697C1247.06 68.9697 1248.36 68.3698 1249.1 67.6365C1250.36 66.401 1250.44 66.5302 1250.19 69.4029C1249.94 72.3781 1249.76 72.5496 1245.73 73.6494L1241.52 74.7964L1240.54 85.9052C1239.58 96.6644 1239.87 102.298 1241.36 102.298C1241.76 102.298 1242.08 101.084 1242.08 99.6005C1242.08 98.1162 1242.66 94.9988 1243.36 92.6724C1244.58 88.6315 1244.4 86.3514 1242.94 87.2415C1241.74 87.9674 1241.27 85.2833 1242.22 83.2186C1242.96 81.6343 1243.45 81.388 1244.62 82.009C1246.9 83.208 1247.16 82.9926 1246.88 80.1467C1246.68 78.1072 1247.12 77.0879 1248.81 75.6759C1250.01 74.6696 1251.46 73.8469 1252.02 73.8469C1252.59 73.8469 1253.51 73.2332 1254.07 72.4837C1254.91 71.3408 1255.05 71.7034 1254.88 74.7191C1254.77 76.6985 1254.41 78.9607 1254.07 79.7468C1253.61 80.8401 1253.83 81.1262 1255 80.9661C1257.66 80.6036 1257.48 82.3285 1254.73 83.6015C1251.33 85.1793 1249.82 88.0959 1251.82 89.2428C1253.14 90.0029 1253.14 90.0565 1251.77 90.0801C1249.95 90.1102 1248.95 92.5903 1248.23 98.938L1247.66 103.858L1250.2 102.915C1252.49 102.064 1252.93 102.172 1254.69 104.046C1256.22 105.666 1257.99 106.321 1262.79 107.04C1270.56 108.206 1275.12 109.472 1275.12 110.465C1275.12 110.941 1263.68 111.239 1245.39 111.239C1228.78 111.239 1215.65 110.923 1215.65 110.523C1215.65 109.806 1221.31 107.591 1225.98 106.479C1227.34 106.155 1228.37 105.538 1228.26 105.109C1228.15 104.681 1227.63 102.405 1227.09 100.052C1226.03 95.376 1225.45 94.6566 1222.05 93.8592C1220.52 93.4991 1219.78 93.647 1219.78 94.316C1219.78 95.0866 1219.56 95.0899 1218.79 94.3314C1218.24 93.7949 1217.03 93.356 1216.08 93.356C1215.14 93.356 1213.52 92.7748 1212.49 92.0643C1211.46 91.3539 1210.08 90.9767 1209.42 91.2254C1208.07 91.7351 1207.76 90.4776 1209.04 89.698C1209.5 89.4217 1209.87 87.8276 1209.87 86.1547C1209.87 82.8333 1211.03 81.1628 1213.34 81.1628C1214.16 81.1628 1214.82 80.797 1214.82 80.3499C1214.82 79.9029 1215.57 80.2687 1216.48 81.1628C1217.38 82.057 1218.7 82.7886 1219.41 82.7886C1220.11 82.7886 1221.79 83.347 1223.13 84.029L1225.56 85.2687V81.9968C1225.56 79.4582 1225.24 78.7031 1224.12 78.6299C1222.85 78.547 1222.86 78.4876 1224.22 78.1438C1225.63 77.7894 1225.72 77.1919 1225.23 71.8741C1224.91 68.3665 1225.08 64.2338 1225.65 61.6245C1226.37 58.2966 1226.37 57.1764 1225.63 56.935C1225.03 56.7375 1224.95 56.2676 1225.42 55.6815C1226.59 54.2127 1227.37 43.1462 1226.34 42.5227C1225.86 42.23 1227.07 41.1408 1229.03 40.1019Z" fill="black"/>
<path d="M1337.4 93.825C1339.25 92.6298 1342.87 91.0875 1345.45 90.3963C1352.83 88.4242 1357.07 88.1844 1361.74 89.4742C1364.12 90.1303 1367.44 90.4902 1369.13 90.2717C1370.81 90.0544 1372.97 90.4266 1373.94 91.0995C1374.9 91.7724 1378.15 93.2685 1381.16 94.4241L1386.63 96.5252L1348.67 100.25L1310.7 103.974L1314.04 100.6C1317.18 97.4125 1317.83 97.1912 1325.71 96.6122C1332.03 96.1472 1334.86 95.4718 1337.4 93.825Z" fill="black"/>
</g>
</svg>
