<svg width="1920" height="1080" fill="none" xmlns="http://www.w3.org/2000/svg"><path fill="url(#a)" d="M0 0h1920v1080H0z"/><path d="m1084 428-13-12-235 235 13 12 17-17h182a18 18 0 0 0 18-18V446l18-18Zm-36 200H884l69-69 21 21a18 18 0 0 0 25 0l14-14 35 35v27Zm0-52-22-23a18 18 0 0 0-25 0l-14 15-21-22 82-82v112ZM872 593v-27l44-44 12 12 12-13-12-12a18 18 0 0 0-25 0l-31 32v-90h141v-18H872a18 18 0 0 0-18 18v142h18Z" fill="#C4C4C4"/><defs><radialGradient id="a" cx="0" cy="0" r="1" gradientUnits="userSpaceOnUse" gradientTransform="matrix(0 540 -960 0 960 540)"><stop stop-color="#fff"/><stop offset="1" stop-color="#ECECEC"/></radialGradient></defs></svg>