<svg width="1600" height="1080" viewBox="0 0 1600 1080" fill="none" xmlns="http://www.w3.org/2000/svg">
<rect width="1600" height="1080" fill="url(#paint0_radial_2_2)"/>
<path d="M923.312 428.193L910.807 415.688L675.688 650.807L688.193 663.312L705.88 645.625H887.938C892.626 645.618 897.121 643.752 900.437 640.437C903.752 637.121 905.618 632.626 905.625 627.938V445.88L923.312 428.193ZM887.938 627.938H723.568L792.487 559.018L813.526 580.057C816.843 583.373 821.341 585.236 826.031 585.236C830.721 585.236 835.219 583.373 838.536 580.057L852.562 566.031L887.938 601.38V627.938ZM887.938 576.361L865.068 553.491C861.751 550.175 857.253 548.312 852.562 548.312C847.872 548.312 843.374 550.175 840.057 553.491L826.031 567.517L805.01 546.495L887.938 463.568V576.361Z" fill="#C4C4C4"/>
<path d="M711.062 592.562V566.031L755.281 521.839L767.424 533.99L779.946 521.468L767.786 509.307C764.469 505.992 759.971 504.129 755.281 504.129C750.591 504.129 746.093 505.992 742.776 509.307L711.062 541.021V451.062H852.562V433.375H711.062C706.373 433.38 701.877 435.245 698.561 438.561C695.245 441.877 693.38 446.373 693.375 451.062V592.562H711.062Z" fill="#C4C4C4"/>
<defs>
<radialGradient id="paint0_radial_2_2" cx="0" cy="0" r="1" gradientUnits="userSpaceOnUse" gradientTransform="translate(800 540) rotate(90) scale(540 800)">
<stop stop-color="white"/>
<stop offset="1" stop-color="#ECECEC"/>
</radialGradient>
</defs>
</svg>
