<svg width="1600" height="1080" viewBox="0 0 1600 1080" fill="none" xmlns="http://www.w3.org/2000/svg">
<rect width="1600" height="1080" fill="url(#paint0_radial_16_10)"/>
<path d="M884.812 439.804L876.196 431.188L714.188 593.196L722.804 601.812L734.992 589.625H860.438C863.668 589.62 866.765 588.335 869.05 586.05C871.335 583.765 872.62 580.668 872.625 577.438V451.992L884.812 439.804ZM860.438 577.438H747.179L794.668 529.949L809.165 544.446C811.45 546.731 814.55 548.014 817.781 548.014C821.013 548.014 824.112 546.731 826.398 544.446L836.062 534.781L860.438 559.138V577.438ZM860.438 541.899L844.679 526.14C842.394 523.856 839.294 522.572 836.062 522.572C832.831 522.572 829.731 523.856 827.446 526.14L817.781 535.805L803.296 521.32L860.438 464.179V541.899Z" fill="#8C8C8C"/>
<path d="M738.562 553.062V534.781L769.031 504.331L777.398 512.704L786.027 504.075L777.648 495.696C775.362 493.411 772.263 492.128 769.031 492.128C765.8 492.128 762.7 493.411 760.415 495.696L738.562 517.548V455.562H836.062V443.375H738.562C735.331 443.378 732.233 444.663 729.948 446.948C727.663 449.233 726.378 452.331 726.375 455.562V553.062H738.562Z" fill="#8C8C8C"/>
<path d="M680.949 652H676.897V632.93H680.949V652ZM676.655 627.878C676.655 627.154 676.851 626.596 677.242 626.205C677.644 625.814 678.213 625.619 678.949 625.619C679.661 625.619 680.213 625.814 680.604 626.205C681.006 626.596 681.207 627.154 681.207 627.878C681.207 628.567 681.006 629.113 680.604 629.516C680.213 629.907 679.661 630.102 678.949 630.102C678.213 630.102 677.644 629.907 677.242 629.516C676.851 629.113 676.655 628.567 676.655 627.878ZM700.711 652H696.641V640.241C696.641 638.781 696.366 637.694 695.814 636.982C695.262 636.258 694.4 635.896 693.227 635.896C691.664 635.896 690.515 636.407 689.779 637.43C689.055 638.442 688.693 640.131 688.693 642.499V652H684.641V632.93H687.813L688.382 635.43H688.589C689.118 634.522 689.882 633.821 690.882 633.326C691.894 632.832 693.003 632.585 694.21 632.585C697.141 632.585 699.084 633.585 700.038 635.585H700.314C700.877 634.643 701.671 633.907 702.694 633.378C703.717 632.849 704.889 632.585 706.211 632.585C708.487 632.585 710.142 633.16 711.177 634.309C712.223 635.459 712.746 637.212 712.746 639.568V652H708.694V640.241C708.694 638.781 708.412 637.694 707.849 636.982C707.297 636.258 706.435 635.896 705.263 635.896C703.688 635.896 702.533 636.39 701.797 637.378C701.073 638.355 700.711 639.861 700.711 641.896V652ZM728.215 652L727.404 649.345H727.266C726.347 650.506 725.421 651.299 724.49 651.724C723.559 652.138 722.364 652.345 720.904 652.345C719.03 652.345 717.564 651.839 716.507 650.828C715.461 649.816 714.938 648.385 714.938 646.534C714.938 644.568 715.668 643.086 717.128 642.086C718.587 641.086 720.812 640.539 723.8 640.448L727.094 640.344V639.327C727.094 638.108 726.806 637.2 726.232 636.602C725.668 635.993 724.789 635.689 723.594 635.689C722.616 635.689 721.68 635.832 720.783 636.12C719.886 636.407 719.024 636.746 718.197 637.137L716.886 634.24C717.921 633.7 719.053 633.292 720.283 633.016C721.513 632.729 722.674 632.585 723.766 632.585C726.191 632.585 728.019 633.114 729.249 634.171C730.491 635.229 731.111 636.89 731.111 639.154V652H728.215ZM722.18 649.241C723.651 649.241 724.829 648.833 725.714 648.017C726.611 647.189 727.059 646.034 727.059 644.551V642.896L724.611 642.999C722.703 643.068 721.312 643.39 720.438 643.965C719.576 644.528 719.145 645.396 719.145 646.569C719.145 647.419 719.398 648.08 719.904 648.552C720.409 649.011 721.168 649.241 722.18 649.241ZM750.753 632.93V635.154L747.494 635.758C747.793 636.16 748.04 636.654 748.235 637.24C748.431 637.827 748.528 638.447 748.528 639.103C748.528 641.068 747.85 642.614 746.494 643.741C745.137 644.867 743.269 645.431 740.89 645.431C740.281 645.431 739.729 645.385 739.235 645.293C738.361 645.833 737.924 646.465 737.924 647.189C737.924 647.626 738.125 647.954 738.528 648.172C738.941 648.391 739.694 648.5 740.786 648.5H744.114C746.218 648.5 747.816 648.948 748.908 649.845C750 650.741 750.546 652.034 750.546 653.724C750.546 655.885 749.655 657.552 747.873 658.725C746.091 659.897 743.516 660.483 740.148 660.483C737.551 660.483 735.568 660.024 734.2 659.104C732.832 658.184 732.148 656.874 732.148 655.173C732.148 654 732.516 653.012 733.251 652.207C733.999 651.414 735.039 650.862 736.372 650.552C735.832 650.322 735.384 649.954 735.027 649.448C734.683 648.931 734.51 648.391 734.51 647.827C734.51 647.115 734.711 646.511 735.114 646.017C735.516 645.523 736.114 645.034 736.907 644.551C735.918 644.126 735.114 643.436 734.493 642.482C733.884 641.517 733.579 640.39 733.579 639.103C733.579 637.034 734.228 635.43 735.527 634.292C736.838 633.154 738.7 632.585 741.114 632.585C741.654 632.585 742.217 632.625 742.804 632.706C743.401 632.775 743.85 632.849 744.149 632.93H750.753ZM735.769 654.966C735.769 655.839 736.16 656.512 736.941 656.983C737.734 657.454 738.844 657.69 740.269 657.69C742.476 657.69 744.12 657.374 745.2 656.742C746.281 656.109 746.821 655.27 746.821 654.224C746.821 653.397 746.522 652.805 745.925 652.448C745.338 652.103 744.241 651.931 742.631 651.931H739.562C738.401 651.931 737.476 652.201 736.786 652.741C736.108 653.293 735.769 654.035 735.769 654.966ZM737.51 639.103C737.51 640.298 737.815 641.218 738.424 641.861C739.045 642.505 739.93 642.827 741.079 642.827C743.424 642.827 744.597 641.574 744.597 639.068C744.597 637.827 744.304 636.873 743.718 636.206C743.143 635.528 742.263 635.189 741.079 635.189C739.907 635.189 739.016 635.522 738.407 636.189C737.809 636.855 737.51 637.827 737.51 639.103ZM760.514 652.345C757.548 652.345 755.226 651.483 753.548 649.758C751.881 648.023 751.048 645.638 751.048 642.603C751.048 639.488 751.824 637.039 753.375 635.258C754.927 633.476 757.06 632.585 759.772 632.585C762.29 632.585 764.278 633.349 765.738 634.878C767.198 636.407 767.928 638.511 767.928 641.189V643.379H755.22C755.278 645.229 755.778 646.655 756.72 647.655C757.663 648.643 758.991 649.138 760.704 649.138C761.83 649.138 762.876 649.034 763.842 648.827C764.819 648.609 765.865 648.253 766.98 647.758V651.052C765.991 651.523 764.991 651.856 763.98 652.052C762.968 652.247 761.813 652.345 760.514 652.345ZM759.772 635.654C758.485 635.654 757.45 636.062 756.669 636.878C755.899 637.694 755.439 638.884 755.289 640.448H763.945C763.922 638.873 763.543 637.683 762.807 636.878C762.071 636.062 761.06 635.654 759.772 635.654ZM794.244 652H790.175V640.275C790.175 638.804 789.876 637.706 789.278 636.982C788.692 636.258 787.755 635.896 786.468 635.896C784.755 635.896 783.502 636.401 782.709 637.413C781.916 638.424 781.519 640.12 781.519 642.499V652H777.467V632.93H780.64L781.209 635.43H781.416C781.991 634.522 782.807 633.821 783.864 633.326C784.922 632.832 786.094 632.585 787.382 632.585C791.957 632.585 794.244 634.913 794.244 639.568V652ZM814.679 642.43C814.679 645.546 813.88 647.977 812.282 649.724C810.684 651.471 808.46 652.345 805.609 652.345C803.827 652.345 802.253 651.943 800.885 651.138C799.517 650.333 798.465 649.178 797.729 647.672C796.994 646.166 796.626 644.419 796.626 642.43C796.626 639.338 797.419 636.924 799.005 635.189C800.592 633.453 802.827 632.585 805.713 632.585C808.471 632.585 810.655 633.476 812.265 635.258C813.874 637.028 814.679 639.419 814.679 642.43ZM800.798 642.43C800.798 646.833 802.425 649.034 805.678 649.034C808.897 649.034 810.506 646.833 810.506 642.43C810.506 638.074 808.885 635.896 805.644 635.896C803.942 635.896 802.707 636.459 801.937 637.585C801.178 638.712 800.798 640.327 800.798 642.43ZM824.337 649.069C825.325 649.069 826.314 648.914 827.302 648.603V651.655C826.854 651.851 826.273 652.011 825.561 652.138C824.86 652.276 824.13 652.345 823.371 652.345C819.532 652.345 817.612 650.322 817.612 646.275V635.999H815.008V634.206L817.802 632.723L819.181 628.688H821.681V632.93H827.113V635.999H821.681V646.207C821.681 647.184 821.923 647.908 822.405 648.379C822.9 648.839 823.543 649.069 824.337 649.069ZM845.635 635.999H840.98V652H836.91V635.999H833.772V634.102L836.91 632.861V631.619C836.91 629.366 837.439 627.7 838.497 626.619C839.554 625.527 841.169 624.981 843.342 624.981C844.767 624.981 846.17 625.217 847.549 625.688L846.48 628.757C845.48 628.435 844.526 628.274 843.618 628.274C842.698 628.274 842.026 628.562 841.6 629.136C841.187 629.7 840.98 630.55 840.98 631.688V632.93H845.635V635.999ZM863.69 642.43C863.69 645.546 862.891 647.977 861.293 649.724C859.696 651.471 857.471 652.345 854.621 652.345C852.839 652.345 851.264 651.943 849.896 651.138C848.528 650.333 847.476 649.178 846.741 647.672C846.005 646.166 845.637 644.419 845.637 642.43C845.637 639.338 846.43 636.924 848.017 635.189C849.603 633.453 851.839 632.585 854.724 632.585C857.483 632.585 859.667 633.476 861.276 635.258C862.885 637.028 863.69 639.419 863.69 642.43ZM849.81 642.43C849.81 646.833 851.436 649.034 854.69 649.034C857.908 649.034 859.517 646.833 859.517 642.43C859.517 638.074 857.897 635.896 854.655 635.896C852.954 635.896 851.718 636.459 850.948 637.585C850.189 638.712 849.81 640.327 849.81 642.43ZM879.693 652L879.124 649.5H878.917C878.354 650.385 877.549 651.08 876.503 651.586C875.469 652.092 874.285 652.345 872.951 652.345C870.641 652.345 868.917 651.77 867.779 650.621C866.641 649.471 866.072 647.73 866.072 645.396V632.93H870.158V644.689C870.158 646.149 870.457 647.247 871.055 647.983C871.652 648.707 872.589 649.069 873.865 649.069C875.567 649.069 876.814 648.563 877.607 647.551C878.412 646.528 878.814 644.821 878.814 642.43V632.93H882.883V652H879.693ZM903.318 652H899.248V640.275C899.248 638.804 898.949 637.706 898.352 636.982C897.765 636.258 896.829 635.896 895.541 635.896C893.828 635.896 892.575 636.401 891.782 637.413C890.989 638.424 890.593 640.12 890.593 642.499V652H886.541V632.93H889.713L890.282 635.43H890.489C891.064 634.522 891.88 633.821 892.938 633.326C893.995 632.832 895.168 632.585 896.455 632.585C901.03 632.585 903.318 634.913 903.318 639.568V652ZM913.268 652.345C910.889 652.345 909.033 651.483 907.699 649.758C906.366 648.034 905.699 645.615 905.699 642.499C905.699 639.373 906.371 636.942 907.716 635.206C909.073 633.459 910.947 632.585 913.337 632.585C915.843 632.585 917.752 633.51 919.062 635.361H919.269C919.073 633.993 918.976 632.913 918.976 632.119V625.171H923.045V652H919.872L919.165 649.5H918.976C917.677 651.397 915.774 652.345 913.268 652.345ZM914.355 649.069C916.022 649.069 917.234 648.603 917.993 647.672C918.752 646.73 919.142 645.206 919.165 643.103V642.534C919.165 640.131 918.775 638.424 917.993 637.413C917.211 636.401 915.987 635.896 914.32 635.896C912.895 635.896 911.797 636.476 911.027 637.637C910.257 638.787 909.872 640.43 909.872 642.568C909.872 644.683 910.245 646.298 910.992 647.413C911.74 648.517 912.86 649.069 914.355 649.069Z" fill="#8C8C8C"/>
<defs>
<radialGradient id="paint0_radial_16_10" cx="0" cy="0" r="1" gradientUnits="userSpaceOnUse" gradientTransform="translate(800 540) rotate(90) scale(540 800)">
<stop stop-color="white"/>
<stop offset="1" stop-color="#ECECEC"/>
</radialGradient>
</defs>
</svg>
