<svg width="26" height="26" viewBox="0 0 26 26" fill="none" xmlns="http://www.w3.org/2000/svg">
<path d="M10.7388 5.44332C10.4454 5.47625 9.9964 5.55408 9.73 5.62292C7.91602 6.08091 6.38342 7.45486 5.72189 9.21795C5.00947 11.1157 5.31479 13.2201 6.54207 14.8365C6.78154 15.1538 7.32334 15.6926 7.63465 15.9291C8.69729 16.7313 9.86769 17.1294 11.1758 17.1294C12.3881 17.1294 13.4388 16.8121 14.4445 16.1416L14.7499 15.935L14.8217 16.0907C14.8786 16.2194 15.2497 16.6026 16.9619 18.3178C18.294 19.6498 19.0723 20.4071 19.1501 20.446C19.2159 20.479 19.3477 20.5209 19.4434 20.5418C20.102 20.6765 20.7276 20.1048 20.6498 19.4403C20.6049 19.0571 20.6557 19.117 18.4526 16.9109C17.3391 15.7944 16.3663 14.8425 16.2914 14.7946C16.2166 14.7467 16.1208 14.6988 16.0759 14.6898C16.028 14.6778 15.9921 14.6599 15.9921 14.6509C15.9921 14.6419 16.058 14.5341 16.1388 14.4084C17.3092 12.5825 17.3451 10.1609 16.2256 8.30497C15.7407 7.49976 15.0612 6.80231 14.2889 6.32337C13.3759 5.75763 12.3971 5.46727 11.3225 5.44033C11.068 5.43734 10.8046 5.43734 10.7388 5.44332ZM11.993 6.10186C13.4867 6.32636 14.8456 7.22736 15.6628 8.53845C16.2795 9.52626 16.5519 10.7925 16.3992 11.9509C16.049 14.579 13.8189 16.5337 11.1788 16.5307C8.43986 16.5247 6.19185 14.4324 5.96435 11.6755C5.83863 10.1668 6.3954 8.67615 7.49096 7.58058C8.68232 6.38623 10.3137 5.85042 11.993 6.10186ZM15.8813 15.2555C15.9352 15.2795 16.8302 16.1536 18.0036 17.3269C20.1379 19.4702 20.096 19.4223 20.0481 19.6438C20.0212 19.7665 19.8865 19.9012 19.7547 19.9372C19.5033 20.006 19.5931 20.0838 17.393 17.8867C15.2408 15.7345 15.2677 15.7674 15.3306 15.5549C15.3725 15.4022 15.4323 15.3274 15.5581 15.2705C15.7017 15.2047 15.7556 15.2017 15.8813 15.2555Z" fill="black"/>
</svg>
